<svg xmlns="http://www.w3.org/2000/svg" viewBox="0 0 800 500" font-family="'Host Grotesk', ui-sans-serif, system-ui, sans-serif"><defs><linearGradient id="cacLine" x1="0" y1="0" x2="1" y2="0"><stop offset="0%" stop-color="#16A34A"/><stop offset="55%" stop-color="#16A34A"/><stop offset="65%" stop-color="#DC2626"/><stop offset="100%" stop-color="#DC2626"/></linearGradient><linearGradient id="cacFill" x1="0" y1="0" x2="0" y2="1"><stop offset="0%" stop-color="#DC2626" stop-opacity="0.15"/><stop offset="100%" stop-color="#DC2626" stop-opacity="0"/></linearGradient><filter id="softShadow2" x="-20%" y="-20%" width="140%" height="140%"><feGaussianBlur in="SourceAlpha" stdDeviation="3"/><feOffset dy="2"/><feComponentTransfer><feFuncA type="linear" slope="0.04"/></feComponentTransfer><feMerge><feMergeNode/><feMergeNode in="SourceGraphic"/></feMerge></filter></defs><rect width="800" height="500" fill="#ffffff"/><g transform="translate(40, 36)"><rect width="80" height="22" rx="11" fill="#FEE2E2" stroke="#DC2626" stroke-width="1"/><text x="40" y="16" fill="#DC2626" font-size="11" font-weight="700" text-anchor="middle" letter-spacing="1">ALERT</text></g><text x="40" y="86" fill="#1e1d1b" font-size="22" font-weight="700">CAC up 18% week-over-week</text><text x="40" y="108" fill="#5a5a5a" font-size="13">Root-cause diagnosis - Generated Mon 9:14am</text><g transform="translate(40, 140)" filter="url(#softShadow2)"><rect width="430" height="320" rx="14" fill="#ffffff" stroke="#ececec" stroke-width="1"/><text x="24" y="34" fill="#5c5fff" font-size="11" font-weight="600" letter-spacing="1">CAC - LAST 14 DAYS</text><text x="24" y="64" fill="#1e1d1b" font-size="24" font-weight="700">$57.60</text><g transform="translate(135, 46)"><rect width="62" height="22" rx="11" fill="#FEE2E2"/><text x="31" y="16" fill="#DC2626" font-size="11" font-weight="700" text-anchor="middle">+18%</text></g><g stroke="#ececec" stroke-width="1" stroke-dasharray="2,4"><line x1="46" y1="120" x2="406" y2="120"/><line x1="46" y1="170" x2="406" y2="170"/><line x1="46" y1="220" x2="406" y2="220"/></g><g fill="#a7a6a6" font-size="9"><text x="38" y="124" text-anchor="end">$70</text><text x="38" y="174" text-anchor="end">$50</text><text x="38" y="224" text-anchor="end">$30</text></g><path d="M 50 200 L 80 195 L 110 198 L 140 192 L 170 196 L 200 188 L 230 190 L 260 180 L 290 165 L 320 130 L 350 110 L 380 105 L 406 110 L 406 240 L 50 240 Z" fill="url(#cacFill)"/><path d="M 50 200 L 80 195 L 110 198 L 140 192 L 170 196 L 200 188 L 230 190 L 260 180 L 290 165 L 320 130 L 350 110 L 380 105 L 406 110" fill="none" stroke="url(#cacLine)" stroke-width="2.5" stroke-linecap="round" stroke-linejoin="round"/><circle cx="290" cy="165" r="6" fill="#DC2626" stroke="#ffffff" stroke-width="2"/><line x1="290" y1="170" x2="290" y2="245" stroke="#DC2626" stroke-width="1" stroke-dasharray="3,3" opacity="0.5"/><text x="290" y="258" fill="#DC2626" font-size="10" text-anchor="middle" font-weight="600">Spike begins</text><g fill="#a7a6a6" font-size="9"><text x="50" y="280">Nov 1</text><text x="226" y="280" text-anchor="middle">Nov 8</text><text x="406" y="280" text-anchor="end">Nov 14</text></g><rect x="24" y="294" width="382" height="18" rx="4" fill="#f7f7f8"/><text x="34" y="307" fill="#5a5a5a" font-size="10" font-weight="600">Verified by Pranjul - 11:42am</text><circle cx="394" cy="303" r="4" fill="#16A34A"/></g><g transform="translate(490, 140)"><text x="0" y="14" fill="#5c5fff" font-size="11" font-weight="600" letter-spacing="1">CONTRIBUTING FACTORS</text><g transform="translate(0, 30)"><rect width="270" height="62" rx="10" fill="#ffffff" stroke="#ececec" stroke-width="1"/><rect x="0" y="0" width="3" height="62" rx="1.5" fill="#DC2626"/><text x="16" y="24" fill="#1e1d1b" font-size="11" font-weight="700">Competitor spend on</text><text x="16" y="38" fill="#1e1d1b" font-size="11" font-weight="700">branded keywords</text><text x="16" y="54" fill="#5a5a5a" font-size="10">Brand X CPC up 41%</text><g transform="translate(212, 19)"><rect width="48" height="24" rx="6" fill="#FEE2E2"/><text x="24" y="16" fill="#DC2626" font-size="12" font-weight="700" text-anchor="middle">+31%</text></g></g><g transform="translate(0, 102)"><rect width="270" height="62" rx="10" fill="#ffffff" stroke="#ececec" stroke-width="1"/><rect x="0" y="0" width="3" height="62" rx="1.5" fill="#D97706"/><text x="16" y="24" fill="#1e1d1b" font-size="11" font-weight="700">Meta CPM inflation</text><text x="16" y="44" fill="#5a5a5a" font-size="10">Vertical-wide auction</text><text x="16" y="56" fill="#5a5a5a" font-size="10">pressure</text><g transform="translate(212, 19)"><rect width="48" height="24" rx="6" fill="#FEF3C7"/><text x="24" y="16" fill="#D97706" font-size="12" font-weight="700" text-anchor="middle">+22%</text></g></g><g transform="translate(0, 174)"><rect width="270" height="62" rx="10" fill="#ffffff" stroke="#ececec" stroke-width="1"/><rect x="0" y="0" width="3" height="62" rx="1.5" fill="#D97706"/><text x="16" y="24" fill="#1e1d1b" font-size="11" font-weight="700">Search conversion rate dip</text><text x="16" y="44" fill="#5a5a5a" font-size="10">LP load time +1.2s</text><text x="16" y="56" fill="#5a5a5a" font-size="10">after deploy</text><g transform="translate(212, 19)"><rect width="48" height="24" rx="6" fill="#FEF3C7"/><text x="24" y="16" fill="#D97706" font-size="12" font-weight="700" text-anchor="middle">-12%</text></g></g><g transform="translate(0, 246)"><rect width="270" height="62" rx="10" fill="#FEE2E2" stroke="#DC2626" stroke-width="1"/><text x="16" y="22" fill="#DC2626" font-size="10" font-weight="700" letter-spacing="1">PRIMARY DRIVER</text><text x="16" y="42" fill="#1e1d1b" font-size="11" font-weight="600">Competitor incursion on branded</text><text x="16" y="56" fill="#1e1d1b" font-size="11" font-weight="600">search - defend now</text></g></g></svg>
