<svg xmlns="http://www.w3.org/2000/svg" viewBox="0 0 800 500" font-family="'Host Grotesk', ui-sans-serif, system-ui, sans-serif"><defs><radialGradient id="radarGrad" cx="0.5" cy="0.5" r="0.5"><stop offset="0%" stop-color="#5c5fff" stop-opacity="0.18"/><stop offset="100%" stop-color="#5c5fff" stop-opacity="0"/></radialGradient><filter id="softShadow4" x="-20%" y="-20%" width="140%" height="140%"><feGaussianBlur in="SourceAlpha" stdDeviation="3"/><feOffset dy="2"/><feComponentTransfer><feFuncA type="linear" slope="0.04"/></feComponentTransfer><feMerge><feMergeNode/><feMergeNode in="SourceGraphic"/></feMerge></filter></defs><rect width="800" height="500" fill="#ffffff"/><g transform="translate(40, 36)"><circle cx="6" cy="6" r="5" fill="#16A34A"><animate attributeName="opacity" values="1;0.3;1" dur="1.5s" repeatCount="indefinite"/></circle><text x="20" y="11" fill="#16A34A" font-size="11" font-weight="700" letter-spacing="1.5">SCANNING - 24/7</text></g><text x="40" y="78" fill="#1e1d1b" font-size="22" font-weight="700">Competitor radar - This week</text><text x="40" y="100" fill="#5a5a5a" font-size="13">7 brands tracked - 142 ads scanned - 18 new angles</text><g transform="translate(40, 130)"><rect width="280" height="330" rx="14" fill="#ffffff" stroke="#ececec" stroke-width="1" filter="url(#softShadow4)"/><text x="20" y="32" fill="#5c5fff" font-size="11" font-weight="600" letter-spacing="1">CATEGORY MAP</text><g transform="translate(140, 180)"><circle cx="0" cy="0" r="110" fill="none" stroke="#ececec" stroke-width="1"/><circle cx="0" cy="0" r="80" fill="none" stroke="#ececec" stroke-width="1"/><circle cx="0" cy="0" r="50" fill="none" stroke="#ececec" stroke-width="1"/><circle cx="0" cy="0" r="20" fill="url(#radarGrad)"/><path d="M 0 0 L 110 0 A 110 110 0 0 1 78 78 Z" fill="#5c5fff" fill-opacity="0.06"/><circle cx="0" cy="0" r="7" fill="#5c5fff"/><circle cx="0" cy="0" r="11" fill="none" stroke="#5c5fff" stroke-width="1.5"/><text x="0" y="28" fill="#4548e6" font-size="10" font-weight="700" text-anchor="middle">YOU</text><circle cx="-60" cy="-40" r="6" fill="#DC2626"/><text x="-60" y="-50" fill="#DC2626" font-size="9" font-weight="600" text-anchor="middle">Brevia</text><circle cx="55" cy="-65" r="5" fill="#D97706"/><text x="55" y="-75" fill="#D97706" font-size="9" font-weight="600" text-anchor="middle">Halcyon</text><circle cx="80" cy="35" r="4" fill="#D97706"/><text x="92" y="40" fill="#D97706" font-size="9" font-weight="600">Foundry</text><circle cx="-85" cy="55" r="4" fill="#a7a6a6"/><text x="-90" y="72" fill="#5a5a5a" font-size="9" font-weight="600" text-anchor="middle">Northwind</text><circle cx="20" cy="90" r="3" fill="#a7a6a6"/><text x="22" y="106" fill="#5a5a5a" font-size="9" font-weight="600">Praxis</text></g><g transform="translate(20, 300)" font-size="10"><circle cx="0" cy="0" r="4" fill="#DC2626"/><text x="10" y="3" fill="#5a5a5a">Scaling fast</text><circle cx="100" cy="0" r="4" fill="#D97706"/><text x="110" y="3" fill="#5a5a5a">Active</text><circle cx="180" cy="0" r="4" fill="#a7a6a6"/><text x="190" y="3" fill="#5a5a5a">Steady</text></g></g><g transform="translate(340, 130)"><text x="0" y="14" fill="#5c5fff" font-size="11" font-weight="600" letter-spacing="1">TOP ANGLES THIS WEEK</text><g transform="translate(0, 26)" filter="url(#softShadow4)"><rect width="420" height="68" rx="10" fill="#ffffff" stroke="#ececec" stroke-width="1"/><rect x="14" y="16" width="36" height="36" rx="8" fill="#FEE2E2"/><text x="32" y="40" fill="#DC2626" font-size="14" font-weight="700" text-anchor="middle">B</text><text x="60" y="26" fill="#1e1d1b" font-size="13" font-weight="700">Brevia</text><text x="60" y="44" fill="#1e1d1b" font-size="11">Founder explains the ingredient story</text><text x="60" y="58" fill="#5a5a5a" font-size="10">Static + 30s vertical - 4 variants live</text><g transform="translate(354, 22)"><rect width="54" height="24" rx="6" fill="#FEE2E2"/><text x="27" y="16" fill="#DC2626" font-size="12" font-weight="700" text-anchor="middle">+38%</text></g></g><g transform="translate(0, 104)" filter="url(#softShadow4)"><rect width="420" height="68" rx="10" fill="#ffffff" stroke="#ececec" stroke-width="1"/><rect x="14" y="16" width="36" height="36" rx="8" fill="#FEF3C7"/><text x="32" y="40" fill="#D97706" font-size="14" font-weight="700" text-anchor="middle">H</text><text x="60" y="26" fill="#1e1d1b" font-size="13" font-weight="700">Halcyon</text><text x="60" y="44" fill="#1e1d1b" font-size="11">Side-by-side before / after</text><text x="60" y="58" fill="#5a5a5a" font-size="10">Carousel - 6 variants live</text><g transform="translate(354, 22)"><rect width="54" height="24" rx="6" fill="#FEF3C7"/><text x="27" y="16" fill="#D97706" font-size="12" font-weight="700" text-anchor="middle">+24%</text></g></g><g transform="translate(0, 182)" filter="url(#softShadow4)"><rect width="420" height="68" rx="10" fill="#ffffff" stroke="#ececec" stroke-width="1"/><rect x="14" y="16" width="36" height="36" rx="8" fill="#FEF3C7"/><text x="32" y="40" fill="#D97706" font-size="14" font-weight="700" text-anchor="middle">F</text><text x="60" y="26" fill="#1e1d1b" font-size="13" font-weight="700">Foundry</text><text x="60" y="44" fill="#1e1d1b" font-size="11">UGC dad-humor + claim stack</text><text x="60" y="58" fill="#5a5a5a" font-size="10">9:16 video - 3 variants live</text><g transform="translate(354, 22)"><rect width="54" height="24" rx="6" fill="#FEF3C7"/><text x="27" y="16" fill="#D97706" font-size="12" font-weight="700" text-anchor="middle">+19%</text></g></g><g transform="translate(0, 270)"><rect width="420" height="60" rx="10" fill="#e2e2ff" stroke="#5c5fff" stroke-width="1"/><text x="16" y="22" fill="#4548e6" font-size="10" font-weight="700" letter-spacing="1">MY TAKE</text><text x="16" y="42" fill="#1e1d1b" font-size="11" font-weight="600">Test ingredient-story angle next sprint.</text><text x="16" y="56" fill="#1e1d1b" font-size="11" font-weight="600">Steal the angle, not the asset.</text></g></g></svg>
