<svg xmlns="http://www.w3.org/2000/svg" viewBox="0 0 800 500" font-family="'Host Grotesk', ui-sans-serif, system-ui, sans-serif"><defs><linearGradient id="thumb1" x1="0" y1="0" x2="1" y2="1"><stop offset="0%" stop-color="#F97316"/><stop offset="100%" stop-color="#DC2626"/></linearGradient><linearGradient id="thumb2" x1="0" y1="0" x2="1" y2="1"><stop offset="0%" stop-color="#06B6D4"/><stop offset="100%" stop-color="#3B82F6"/></linearGradient><linearGradient id="thumb3" x1="0" y1="0" x2="1" y2="1"><stop offset="0%" stop-color="#A78BFA"/><stop offset="100%" stop-color="#5c5fff"/></linearGradient><linearGradient id="thumb4" x1="0" y1="0" x2="1" y2="1"><stop offset="0%" stop-color="#10B981"/><stop offset="100%" stop-color="#059669"/></linearGradient><linearGradient id="thumb5" x1="0" y1="0" x2="1" y2="1"><stop offset="0%" stop-color="#F59E0B"/><stop offset="100%" stop-color="#D97706"/></linearGradient><linearGradient id="thumb6" x1="0" y1="0" x2="1" y2="1"><stop offset="0%" stop-color="#EC4899"/><stop offset="100%" stop-color="#BE185D"/></linearGradient><filter id="softShadow3" x="-20%" y="-20%" width="140%" height="140%"><feGaussianBlur in="SourceAlpha" stdDeviation="3"/><feOffset dy="2"/><feComponentTransfer><feFuncA type="linear" slope="0.04"/></feComponentTransfer><feMerge><feMergeNode/><feMergeNode in="SourceGraphic"/></feMerge></filter><filter id="thumbShadow" x="-20%" y="-20%" width="140%" height="140%"><feGaussianBlur in="SourceAlpha" stdDeviation="2"/><feOffset dy="2"/><feComponentTransfer><feFuncA type="linear" slope="0.08"/></feComponentTransfer><feMerge><feMergeNode/><feMergeNode in="SourceGraphic"/></feMerge></filter></defs><rect width="800" height="500" fill="#ffffff"/><g transform="translate(40, 36)"><rect width="120" height="22" rx="11" fill="#e2e2ff" stroke="#5c5fff" stroke-width="1"/><text x="60" y="16" fill="#4548e6" font-size="11" font-weight="700" text-anchor="middle" letter-spacing="1">CREATIVE DNA</text></g><text x="40" y="86" fill="#1e1d1b" font-size="22" font-weight="700">What makes your top 10 ads win</text><text x="40" y="108" fill="#5a5a5a" font-size="13">Tagged - Analyzed - Patterns extracted</text><g transform="translate(40, 140)"><g transform="translate(0, 0)" filter="url(#thumbShadow)"><rect width="110" height="140" rx="10" fill="url(#thumb1)"/><rect x="6" y="6" width="40" height="14" rx="3" fill="#000" fill-opacity="0.4"/><text x="26" y="16" fill="#fff" font-size="9" font-weight="700" text-anchor="middle">9:16</text><circle cx="55" cy="70" r="22" fill="#fff" fill-opacity="0.25"/><polygon points="50,62 50,78 64,70" fill="#fff"/><text x="55" y="118" fill="#fff" font-size="9" font-weight="600" text-anchor="middle">Founder POV</text><text x="55" y="130" fill="#fff" font-size="8" text-anchor="middle" opacity="0.8">ROAS 3.8x</text></g><g transform="translate(120, 0)" filter="url(#thumbShadow)"><rect width="110" height="140" rx="10" fill="url(#thumb2)"/><rect x="6" y="6" width="40" height="14" rx="3" fill="#000" fill-opacity="0.4"/><text x="26" y="16" fill="#fff" font-size="9" font-weight="700" text-anchor="middle">9:16</text><rect x="20" y="55" width="70" height="30" rx="4" fill="#fff" fill-opacity="0.3"/><text x="55" y="74" fill="#fff" font-size="11" font-weight="700" text-anchor="middle">Wait.</text><text x="55" y="118" fill="#fff" font-size="9" font-weight="600" text-anchor="middle">Pattern interrupt</text><text x="55" y="130" fill="#fff" font-size="8" text-anchor="middle" opacity="0.8">ROAS 4.1x</text></g><g transform="translate(240, 0)" filter="url(#thumbShadow)"><rect width="110" height="140" rx="10" fill="url(#thumb3)"/><rect x="6" y="6" width="40" height="14" rx="3" fill="#000" fill-opacity="0.4"/><text x="26" y="16" fill="#fff" font-size="9" font-weight="700" text-anchor="middle">9:16</text><line x1="55" y1="40" x2="55" y2="90" stroke="#fff" stroke-width="1" opacity="0.5"/><circle cx="35" cy="65" r="12" fill="#fff" fill-opacity="0.4"/><circle cx="75" cy="65" r="12" fill="#fff" fill-opacity="0.4"/><text x="55" y="118" fill="#fff" font-size="9" font-weight="600" text-anchor="middle">Before / After</text><text x="55" y="130" fill="#fff" font-size="8" text-anchor="middle" opacity="0.8">ROAS 3.5x</text></g><g transform="translate(0, 150)" filter="url(#thumbShadow)"><rect width="110" height="140" rx="10" fill="url(#thumb4)"/><rect x="6" y="6" width="40" height="14" rx="3" fill="#000" fill-opacity="0.4"/><text x="26" y="16" fill="#fff" font-size="9" font-weight="700" text-anchor="middle">9:16</text><rect x="15" y="50" width="80" height="6" rx="3" fill="#fff" opacity="0.7"/><rect x="15" y="62" width="60" height="6" rx="3" fill="#fff" opacity="0.5"/><rect x="15" y="74" width="70" height="6" rx="3" fill="#fff" opacity="0.6"/><text x="55" y="118" fill="#fff" font-size="9" font-weight="600" text-anchor="middle">Claim stack</text><text x="55" y="130" fill="#fff" font-size="8" text-anchor="middle" opacity="0.8">ROAS 3.2x</text></g><g transform="translate(120, 150)" filter="url(#thumbShadow)"><rect width="110" height="140" rx="10" fill="url(#thumb5)"/><rect x="6" y="6" width="40" height="14" rx="3" fill="#000" fill-opacity="0.4"/><text x="26" y="16" fill="#fff" font-size="9" font-weight="700" text-anchor="middle">9:16</text><circle cx="55" cy="55" r="16" fill="#fff" fill-opacity="0.35"/><text x="55" y="60" fill="#fff" font-size="14" font-weight="700" text-anchor="middle">UGC</text><text x="55" y="118" fill="#fff" font-size="9" font-weight="600" text-anchor="middle">Reviewer reads</text><text x="55" y="130" fill="#fff" font-size="8" text-anchor="middle" opacity="0.8">ROAS 4.4x</text></g><g transform="translate(240, 150)" filter="url(#thumbShadow)"><rect width="110" height="140" rx="10" fill="url(#thumb6)"/><rect x="6" y="6" width="40" height="14" rx="3" fill="#000" fill-opacity="0.4"/><text x="26" y="16" fill="#fff" font-size="9" font-weight="700" text-anchor="middle">9:16</text><rect x="20" y="50" width="70" height="40" rx="6" fill="#fff" fill-opacity="0.25"/><text x="55" y="68" fill="#fff" font-size="9" font-weight="700" text-anchor="middle">My honest</text><text x="55" y="80" fill="#fff" font-size="9" font-weight="700" text-anchor="middle">take...</text><text x="55" y="118" fill="#fff" font-size="9" font-weight="600" text-anchor="middle">Confession hook</text><text x="55" y="130" fill="#fff" font-size="8" text-anchor="middle" opacity="0.8">ROAS 3.9x</text></g></g><g transform="translate(420, 140)" filter="url(#softShadow3)"><rect width="340" height="290" rx="14" fill="#ffffff" stroke="#ececec" stroke-width="1"/><text x="24" y="32" fill="#5c5fff" font-size="11" font-weight="600" letter-spacing="1">WINNING PATTERN</text><g transform="translate(24, 50)"><text x="0" y="14" fill="#5a5a5a" font-size="11">Hook type</text><text x="0" y="36" fill="#1e1d1b" font-size="15" font-weight="700">Pattern interrupt</text><g transform="translate(228, 14)"><rect width="56" height="24" rx="12" fill="#e2e2ff"/><text x="28" y="16" fill="#4548e6" font-size="10" font-weight="700" text-anchor="middle">86%</text></g></g><line x1="24" y1="96" x2="316" y2="96" stroke="#ececec" stroke-width="1"/><g transform="translate(24, 108)"><text x="0" y="14" fill="#5a5a5a" font-size="11">Format</text><text x="0" y="36" fill="#1e1d1b" font-size="15" font-weight="700">Vertical 9:16</text><g transform="translate(228, 14)"><rect width="56" height="24" rx="12" fill="#e2e2ff"/><text x="28" y="16" fill="#4548e6" font-size="10" font-weight="700" text-anchor="middle">72%</text></g></g><line x1="24" y1="154" x2="316" y2="154" stroke="#ececec" stroke-width="1"/><g transform="translate(24, 166)"><text x="0" y="14" fill="#5a5a5a" font-size="11">Tone</text><text x="0" y="36" fill="#1e1d1b" font-size="15" font-weight="700">Founder-led</text><g transform="translate(228, 14)"><rect width="56" height="24" rx="12" fill="#e2e2ff"/><text x="28" y="16" fill="#4548e6" font-size="10" font-weight="700" text-anchor="middle">64%</text></g></g><line x1="24" y1="212" x2="316" y2="212" stroke="#ececec" stroke-width="1"/><g transform="translate(24, 224)"><text x="0" y="14" fill="#5a5a5a" font-size="11">Pacing</text><text x="0" y="36" fill="#1e1d1b" font-size="15" font-weight="700">Cuts &lt; 2 seconds</text><g transform="translate(228, 14)"><rect width="56" height="24" rx="12" fill="#e2e2ff"/><text x="28" y="16" fill="#4548e6" font-size="10" font-weight="700" text-anchor="middle">58%</text></g></g></g><g transform="translate(420, 446)"><rect width="340" height="34" rx="8" fill="#e2e2ff" stroke="#5c5fff" stroke-width="1"/><text x="16" y="22" fill="#4548e6" font-size="11" font-weight="600">-&gt;</text><text x="32" y="22" fill="#1e1d1b" font-size="11" font-weight="600">Next brief: 3 founder-POV variants, sub-2s cuts</text></g></svg>
