<svg xmlns="http://www.w3.org/2000/svg" viewBox="0 0 800 500" font-family="'Host Grotesk', ui-sans-serif, system-ui, sans-serif"><defs><filter id="softShadow" x="-20%" y="-20%" width="140%" height="140%"><feGaussianBlur in="SourceAlpha" stdDeviation="3"/><feOffset dy="2"/><feComponentTransfer><feFuncA type="linear" slope="0.04"/></feComponentTransfer><feMerge><feMergeNode/><feMergeNode in="SourceGraphic"/></feMerge></filter></defs><rect width="800" height="500" fill="#ffffff"/><g transform="translate(40, 36)"><circle cx="6" cy="6" r="5" fill="#16A34A"><animate attributeName="opacity" values="1;0.4;1" dur="2s" repeatCount="indefinite"/></circle><text x="20" y="11" fill="#16A34A" font-size="11" font-weight="600" letter-spacing="1.5">LIVE - OPTIMIZING NOW</text></g><text x="40" y="78" fill="#1e1d1b" font-size="22" font-weight="700">Running across 4 channels</text><text x="40" y="100" fill="#5a5a5a" font-size="13">Today - 7 active campaigns</text><g transform="translate(40, 130)" filter="url(#softShadow)"><rect width="350" height="160" rx="14" fill="#ffffff" stroke="#ececec" stroke-width="1"/><circle cx="32" cy="32" r="16" fill="#1877F2"/><text x="32" y="38" fill="#ffffff" font-size="18" font-weight="700" text-anchor="middle">f</text><text x="62" y="30" fill="#1e1d1b" font-size="15" font-weight="700">Meta Ads</text><text x="62" y="48" fill="#5a5a5a" font-size="11">3 campaigns - $4,200 today</text><g transform="translate(20, 78)" font-size="11"><circle cx="0" cy="0" r="3" fill="#16A34A"/><text x="10" y="4" fill="#1e1d1b">Budget shifted +$200 to LAL 1%</text></g><g transform="translate(20, 102)" font-size="11"><circle cx="0" cy="0" r="3" fill="#D97706"/><text x="10" y="4" fill="#1e1d1b">Paused ad set - CTR &lt; 0.8%</text></g><g transform="translate(20, 126)" font-size="11"><circle cx="0" cy="0" r="3" fill="#5c5fff"/><text x="10" y="4" fill="#1e1d1b">New creative live - Hook v3</text></g></g><g transform="translate(410, 130)" filter="url(#softShadow)"><rect width="350" height="160" rx="14" fill="#ffffff" stroke="#ececec" stroke-width="1"/><g transform="translate(16, 16)"><circle cx="16" cy="16" r="16" fill="#f5f5f5"/><text x="16" y="22" fill="#4285F4" font-size="18" font-weight="700" text-anchor="middle">G</text></g><text x="62" y="30" fill="#1e1d1b" font-size="15" font-weight="700">Google Ads</text><text x="62" y="48" fill="#5a5a5a" font-size="11">2 campaigns - $2,850 today</text><g transform="translate(20, 78)" font-size="11"><circle cx="0" cy="0" r="3" fill="#16A34A"/><text x="10" y="4" fill="#1e1d1b">tCPA lowered to $42 (was $48)</text></g><g transform="translate(20, 102)" font-size="11"><circle cx="0" cy="0" r="3" fill="#16A34A"/><text x="10" y="4" fill="#1e1d1b">12 new negatives added</text></g><g transform="translate(20, 126)" font-size="11"><circle cx="0" cy="0" r="3" fill="#5c5fff"/><text x="10" y="4" fill="#1e1d1b">Brand defense bid to +18%</text></g></g><g transform="translate(40, 310)" filter="url(#softShadow)"><rect width="350" height="160" rx="14" fill="#ffffff" stroke="#ececec" stroke-width="1"/><rect x="16" y="16" width="32" height="32" rx="8" fill="#1e1d1b"/><text x="32" y="38" fill="#FF0050" font-size="18" font-weight="700" text-anchor="middle">&#9834;</text><text x="62" y="30" fill="#1e1d1b" font-size="15" font-weight="700">TikTok Ads</text><text x="62" y="48" fill="#5a5a5a" font-size="11">1 campaign - $1,140 today</text><g transform="translate(20, 78)" font-size="11"><circle cx="0" cy="0" r="3" fill="#16A34A"/><text x="10" y="4" fill="#1e1d1b">UGC variant scaled +40%</text></g><g transform="translate(20, 102)" font-size="11"><circle cx="0" cy="0" r="3" fill="#D97706"/><text x="10" y="4" fill="#1e1d1b">Frequency cap raised to 3</text></g><g transform="translate(20, 126)" font-size="11"><circle cx="0" cy="0" r="3" fill="#5c5fff"/><text x="10" y="4" fill="#1e1d1b">Spark Ad whitelist refreshed</text></g></g><g transform="translate(410, 310)" filter="url(#softShadow)"><rect width="350" height="160" rx="14" fill="#ffffff" stroke="#ececec" stroke-width="1"/><rect x="16" y="16" width="32" height="32" rx="6" fill="#0A66C2"/><text x="32" y="38" fill="#ffffff" font-size="15" font-weight="700" text-anchor="middle">in</text><text x="62" y="30" fill="#1e1d1b" font-size="15" font-weight="700">LinkedIn Ads</text><text x="62" y="48" fill="#5a5a5a" font-size="11">1 campaign - $920 today</text><g transform="translate(20, 78)" font-size="11"><circle cx="0" cy="0" r="3" fill="#16A34A"/><text x="10" y="4" fill="#1e1d1b">Job-title audience refined</text></g><g transform="translate(20, 102)" font-size="11"><circle cx="0" cy="0" r="3" fill="#16A34A"/><text x="10" y="4" fill="#1e1d1b">Lead form Q4 simplified</text></g><g transform="translate(20, 126)" font-size="11"><circle cx="0" cy="0" r="3" fill="#5c5fff"/><text x="10" y="4" fill="#1e1d1b">CPL trending -22% WoW</text></g></g></svg>
